<svg width="20" height="20" viewBox="0 0 20 20" fill="none" xmlns="http://www.w3.org/2000/svg">
<path d="M9.99984 18.3333C14.6022 18.3333 18.3332 14.6023 18.3332 9.99996C18.3332 5.39759 14.6022 1.66663 9.99984 1.66663C5.39746 1.66663 1.6665 5.39759 1.6665 9.99996C1.6665 14.6023 5.39746 18.3333 9.99984 18.3333Z" stroke="#39635D" stroke-width="2" stroke-linecap="round" stroke-linejoin="round"/>
<path d="M7.5752 7.49999C7.77112 6.94304 8.15782 6.47341 8.66682 6.17426C9.17583 5.87512 9.77427 5.76577 10.3562 5.86558C10.9381 5.96539 11.4659 6.26792 11.8461 6.71959C12.2263 7.17126 12.4344 7.74292 12.4335 8.33332C12.4335 9.99999 9.93353 10.8333 9.93353 10.8333" stroke="#39635D" stroke-width="2" stroke-linecap="round" stroke-linejoin="round"/>
<path d="M10 14.1666H10.0083" stroke="#39635D" stroke-width="2" stroke-linecap="round" stroke-linejoin="round"/>
</svg>
