<?xml version="1.0" encoding="utf-8"?>
<!-- Generator: Adobe Illustrator 27.5.0, SVG Export Plug-In . SVG Version: 6.00 Build 0)  -->
<svg version="1.1" id="Layer_1" xmlns="http://www.w3.org/2000/svg" xmlns:xlink="http://www.w3.org/1999/xlink" x="0px" y="0px"
	 viewBox="0 0 300 125.6" style="enable-background:new 0 0 300 125.6;" xml:space="preserve">
<style type="text/css">
	.st0{fill:#FFFFFF;}
</style>
<path class="st0" d="M147.3,39.2h-5.3V18.9h5.3V39.2z"/>
<path class="st0" d="M154.6,18.9h5.3l9.7,12.4h0.1V18.9h5.3v20.3h-5.3l-9.7-12.4h-0.1v12.4h-5.3V18.9z"/>
<path class="st0" d="M190.2,39.2h-5.3V23.3h-4.4v-4.5h14v4.5h-4.4V39.2z"/>
<path class="st0" d="M205.5,23.3v3.4h5.9v4.5h-5.9v3.5h6.3v4.5h-11.5V18.8h11.5v4.5L205.5,23.3z"/>
<path class="st0" d="M235.7,39.2h-6.6l-5-7.8h-0.1v7.8h-5.3V18.9h7.9c4,0,7.1,1.9,7.1,6.2c0,2.8-1.6,5.2-4.4,5.7L235.7,39.2z
	 M224.1,28h0.5c1.7,0,3.7-0.3,3.7-2.5s-1.9-2.5-3.7-2.5h-0.5V28z"/>
<path class="st0" d="M240.9,18.9h5.3l9.7,12.4h0.1V18.9h5.3v20.3h-5.3l-9.7-12.4h-0.1v12.4h-5.3V18.9z"/>
<path class="st0" d="M273.7,23.3v3.4h6v4.5h-6v3.5h6.3v4.5h-11.5V18.8H280v4.5L273.7,23.3z"/>
<path class="st0" d="M295.1,39.2h-5.3V23.3h-4.4v-4.5h14v4.5h-4.4V39.2z"/>
<path class="st0" d="M147.7,59v3.4h5.8v4.5h-5.8v8h-5.3V54.5h11.7V59H147.7z"/>
<path class="st0" d="M178.3,74.8h-6.6l-5-7.8h-0.1v7.8h-5.3V54.5h7.9c4,0,7.1,1.9,7.1,6.2c0,2.8-1.6,5.2-4.4,5.7L178.3,74.8z
	 M166.7,63.6h0.5c1.7,0,3.7-0.3,3.7-2.5c0-2.2-1.9-2.5-3.7-2.5h-0.5V63.6z"/>
<path class="st0" d="M189.4,59v3.4h5.9v4.5h-5.9v3.5h6.3v4.5h-11.5V54.5h11.5V59H189.4z"/>
<path class="st0" d="M208.6,59v3.4h5.9v4.5h-5.9v3.5h6.3v4.5h-11.5V54.5h11.5V59H208.6z"/>
<path class="st0" d="M222.6,54.5h7.5c5.7,0,10.3,4.4,10.3,10.1c0,5.7-4.7,10.1-10.3,10.1h-7.5L222.6,54.5z M227.8,70.3h1.2
	c3.1,0,5.8-1.7,5.8-5.7c0-3.6-2.4-5.7-5.8-5.7h-1.2V70.3z"/>
<path class="st0" d="M268.6,64.3c0,6.6-4.7,11.2-11.2,11.2c-6.5,0-11.2-4.6-11.2-11.2c0-6.1,5.4-10.4,11.2-10.4
	C263.3,53.8,268.6,58.1,268.6,64.3z M251.7,64.3c0,3.5,2.6,6.1,5.7,6.1c3.2,0,5.7-2.6,5.7-6.1c0-2.8-2.6-5.4-5.7-5.4
	C254.3,58.9,251.7,61.5,251.7,64.3L251.7,64.3z"/>
<path class="st0" d="M277.7,54.5h5.2l4.1,10.8l4.4-10.8h5.2l3.1,20.3h-5.3L293,63.1h-0.1L288,74.8h-2.1l-4.7-11.7h-0.1l-1.7,11.7
	h-5.2L277.7,54.5z"/>
<path class="st0" d="M145.5,92.8v3.6h4.6v2.8h-4.6v7.1h-3.2V90h8.1v2.8H145.5z"/>
<path class="st0" d="M162.6,106.7c-5,0-8-3.8-8-8.6s3.2-8.5,8-8.5s8,3.7,8,8.5S167.6,106.7,162.6,106.7z M162.6,92.7
	c-3,0-4.8,2.7-4.8,5.3c0,2.5,1.3,5.6,4.8,5.6s4.8-3.1,4.8-5.6C167.4,95.4,165.6,92.7,162.6,92.7z"/>
<path class="st0" d="M175.1,90h3.2v9.1c0,2,0.2,4.8,2.9,4.8c2.7,0,2.9-2.8,2.9-4.8V90h3.2v9.7c0,4-1.7,7-6,7s-6-3-6-7V90z"/>
<path class="st0" d="M192.4,89.6h2.3l8.5,11.4h0V90h3.2v16.6h-2.3l-8.5-11.3h0v11h-3.2L192.4,89.6z"/>
<path class="st0" d="M211.8,90h4.5c4.7,0,7.8,3.5,7.8,8.1c0,4.6-3.2,8.1-7.8,8.1h-4.5V90z M215,103.5h0.5c3.9,0,5.4-2.2,5.4-5.4
	c0-3.5-1.8-5.4-5.4-5.4H215V103.5z"/>
<path class="st0" d="M232,102.8l-1.3,3.4h-3.3l6.3-16.7h2.5l6.2,16.7h-3.4l-1.2-3.4L232,102.8z M234.8,94.3L234.8,94.3l-1.8,5.9h3.9
	L234.8,94.3z"/>
<path class="st0" d="M249.8,106.2h-3.2V92.8h-3.3V90h9.7v2.8h-3.3L249.8,106.2z"/>
<path class="st0" d="M260.5,106.2h-3.2V90h3.2V106.2z"/>
<path class="st0" d="M273,106.7c-5,0-8-3.8-8-8.6s3.2-8.5,8-8.5s8,3.7,8,8.5S278,106.7,273,106.7z M273,92.7c-3,0-4.8,2.7-4.8,5.3
	c0,2.5,1.2,5.6,4.8,5.6c3.5,0,4.8-3.1,4.8-5.6C277.8,95.4,276,92.7,273,92.7z"/>
<path class="st0" d="M285.6,89.6h2.3l8.5,11.3h0V90h3.2v16.6h-2.3l-8.5-11.3h0v11h-3.2V89.6z"/>
<path class="st0" d="M34.5,6.9C3.7,22.6-8.6,60.4,7.1,91.3s53.5,43.2,84.4,27.4s43.2-53.5,27.4-84.4S65.4-8.9,34.5,6.9z M117.5,50.9
	c-0.1,0-0.1,0-0.2,0c-0.4,0.1-0.8,0.2-1.2,0.4c-0.4,0.2-0.7,0.5-1,0.9c-0.3,0.3-0.4,0.7-0.6,1.2c-0.1,0.4-0.1,0.9-0.1,1.3
	c0.1,0.4,0.2,0.8,0.4,1.2c0.2,0.4,0.5,0.7,0.9,0.9c0.4,0.2,0.8,0.4,1.2,0.5c0.4,0.1,0.9,0.1,1.3,0l0.1,0c0.4,3.7,0.4,7.4,0,11
	l-0.1,0c-0.8-0.1-1.7,0.1-2.4,0.6c-0.7,0.5-1.1,1.3-1.3,2.1c-0.1,0.8,0.1,1.7,0.6,2.4c0.5,0.7,1.2,1.2,2.1,1.3c0,0,0.1,0,0.1,0
	c-0.8,3.6-1.9,7.1-3.4,10.5c0,0-0.1-0.1-0.1-0.1c-0.8-0.4-1.7-0.5-2.5-0.2c-0.8,0.3-1.5,0.8-1.9,1.6c-0.4,0.8-0.5,1.7-0.2,2.5
	c0.3,0.8,0.8,1.5,1.6,1.9l0.1,0.1c-1.9,3.2-4,6.2-6.5,8.9c0,0-0.1-0.1-0.1-0.1c-0.6-0.6-1.4-0.9-2.3-0.9c-0.9,0-1.7,0.3-2.3,0.9
	c-0.6,0.6-0.9,1.4-0.9,2.3c0,0.9,0.3,1.7,0.9,2.3l0.1,0.1c-2.8,2.4-5.7,4.6-8.9,6.5c0,0,0-0.1-0.1-0.1c-0.4-0.8-1.1-1.3-1.9-1.6
	c-0.8-0.3-1.7-0.2-2.5,0.2c-0.8,0.4-1.3,1.1-1.6,1.9c-0.3,0.8-0.2,1.7,0.2,2.5c0,0,0,0.1,0.1,0.1c-3.4,1.5-6.9,2.6-10.5,3.4
	c0-0.1,0-0.1,0-0.1c-0.1-0.8-0.6-1.6-1.3-2.1c-0.7-0.5-1.6-0.7-2.4-0.6c-0.8,0.1-1.6,0.6-2.1,1.3c-0.5,0.7-0.7,1.6-0.6,2.4
	c0,0.1,0,0.1,0,0.2c-3.7,0.4-7.4,0.4-11,0c0,0,0-0.1,0-0.1c0.1-0.4,0.1-0.9,0-1.3c-0.1-0.4-0.3-0.8-0.5-1.2
	c-0.2-0.4-0.6-0.6-0.9-0.9c-0.4-0.2-0.8-0.4-1.2-0.4c-0.4-0.1-0.9,0-1.3,0.1c-0.4,0.1-0.8,0.3-1.2,0.5c-0.3,0.3-0.6,0.6-0.9,1
	c-0.2,0.4-0.4,0.8-0.4,1.2c0,0,0,0.1,0,0.1c-3.6-0.8-7.1-1.9-10.5-3.4c0,0,0-0.1,0.1-0.1c0.2-0.4,0.3-0.8,0.3-1.2
	c0-0.4,0-0.8-0.1-1.3c-0.1-0.4-0.3-0.8-0.6-1.1c-0.3-0.3-0.6-0.6-1-0.8c-0.4-0.2-0.8-0.3-1.2-0.3c-0.4,0-0.8,0-1.3,0.1
	c-0.4,0.1-0.8,0.3-1.1,0.6c-0.3,0.3-0.6,0.6-0.8,1c0,0,0,0.1-0.1,0.1c-3.2-1.9-6.2-4-8.9-6.5c0,0,0.1-0.1,0.1-0.1
	c0.3-0.3,0.5-0.7,0.7-1c0.2-0.4,0.2-0.8,0.2-1.2c0-0.4-0.1-0.8-0.2-1.2c-0.2-0.4-0.4-0.7-0.7-1c-0.3-0.3-0.7-0.5-1-0.7
	c-0.4-0.2-0.8-0.2-1.2-0.2c-0.4,0-0.8,0.1-1.2,0.2c-0.4,0.2-0.7,0.4-1,0.7c0,0-0.1,0.1-0.1,0.1C19,97,16.8,94.1,15,90.9l0.1-0.1
	c0.8-0.4,1.3-1.1,1.6-1.9c0.3-0.8,0.2-1.7-0.2-2.5c-0.4-0.8-1.1-1.3-1.9-1.6c-0.8-0.3-1.7-0.2-2.5,0.2c0,0-0.1,0-0.1,0.1
	c-1.5-3.4-2.6-6.9-3.4-10.5c0.1,0,0.1,0,0.2,0c0.8-0.1,1.6-0.6,2.1-1.3c0.5-0.7,0.7-1.6,0.6-2.4c-0.1-0.8-0.6-1.6-1.3-2.1
	c-0.7-0.5-1.6-0.7-2.4-0.6l-0.1,0c-0.4-3.7-0.4-7.4,0-11c0,0,0.1,0,0.1,0c0.8,0.1,1.7-0.1,2.3-0.6c0.7-0.5,1.1-1.3,1.3-2.1
	c0.1-0.8-0.1-1.7-0.6-2.4c-0.5-0.7-1.2-1.2-2-1.3c0,0-0.1,0-0.1,0c0.8-3.6,1.9-7.1,3.4-10.5l0.1,0.1c0.8,0.4,1.7,0.5,2.5,0.2
	c0.4-0.1,0.8-0.3,1.1-0.6c0.3-0.3,0.6-0.6,0.8-1c0.2-0.4,0.3-0.8,0.3-1.2c0-0.4,0-0.8-0.1-1.3c-0.1-0.4-0.3-0.8-0.6-1.1
	c-0.3-0.3-0.6-0.6-1-0.8L15,34.7c1.9-3.2,4-6.2,6.5-8.9c0,0,0.1,0.1,0.1,0.1c0.3,0.3,0.7,0.5,1,0.7c0.4,0.2,0.8,0.2,1.2,0.2
	c0.4,0,0.8-0.1,1.2-0.2c0.4-0.2,0.7-0.4,1-0.7c0.3-0.3,0.5-0.7,0.7-1c0.2-0.4,0.2-0.8,0.2-1.2c0-0.4-0.1-0.8-0.2-1.2
	c-0.2-0.4-0.4-0.7-0.7-1c0,0-0.1-0.1-0.1-0.1c2.8-2.4,5.7-4.6,8.9-6.5c0,0,0,0.1,0.1,0.1c0.2,0.4,0.5,0.7,0.8,1
	c0.3,0.3,0.7,0.5,1.1,0.6c0.4,0.1,0.8,0.2,1.3,0.1c0.4,0,0.8-0.2,1.2-0.3c0.4-0.2,0.7-0.5,1-0.8c0.3-0.3,0.5-0.7,0.6-1.1
	c0.1-0.4,0.2-0.8,0.1-1.3c0-0.4-0.2-0.8-0.3-1.2c0,0,0-0.1-0.1-0.1c3.4-1.5,6.9-2.6,10.5-3.4c0,0.1,0,0.1,0,0.2
	c0.2,0.8,0.6,1.6,1.3,2.1c0.7,0.5,1.5,0.7,2.4,0.6c0.8-0.1,1.6-0.6,2.1-1.3c0.5-0.7,0.7-1.5,0.6-2.4c0-0.1,0-0.1,0-0.2
	c3.7-0.4,7.4-0.4,11,0c0,0,0,0.1,0,0.1c-0.1,0.4-0.1,0.9,0,1.3c0.1,0.4,0.3,0.8,0.5,1.2c0.2,0.4,0.6,0.6,0.9,0.9
	c0.4,0.2,0.8,0.4,1.2,0.4c0.4,0.1,0.9,0,1.3-0.1c0.4-0.1,0.8-0.3,1.2-0.5c0.3-0.3,0.6-0.6,0.9-1c0.2-0.4,0.4-0.8,0.4-1.2l0-0.1
	c3.6,0.8,7.1,1.9,10.5,3.4c0,0-0.1,0.1-0.1,0.1c-0.2,0.4-0.3,0.8-0.3,1.2c0,0.4,0,0.8,0.1,1.3c0.1,0.4,0.3,0.8,0.6,1.1
	c0.3,0.3,0.6,0.6,1,0.8c0.8,0.4,1.7,0.5,2.5,0.2c0.8-0.3,1.5-0.8,1.9-1.6c0,0,0-0.1,0.1-0.1c3.2,1.9,6.2,4,8.9,6.5
	c0,0-0.1,0.1-0.1,0.1c-0.6,0.6-0.9,1.4-0.9,2.3c0,0.9,0.3,1.7,0.9,2.3c0.6,0.6,1.4,0.9,2.3,0.9c0.9,0,1.7-0.3,2.3-0.9
	c0,0,0.1-0.1,0.1-0.1c2.4,2.7,4.6,5.7,6.5,8.9c0,0-0.1,0-0.1,0.1c-0.8,0.4-1.3,1.1-1.6,1.9c-0.3,0.8-0.2,1.7,0.2,2.5
	c0.4,0.8,1.1,1.3,1.9,1.6c0.8,0.3,1.7,0.2,2.5-0.2c0,0,0.1,0,0.1-0.1C115.5,43.8,116.7,47.3,117.5,50.9z"/>
<path class="st0" d="M64.9,37.4c-0.7-0.1-1.3-0.1-2-0.1c-0.6,0-1.2,0-1.7,0.1l1.6-30L64.9,37.4z"/>
<path class="st0" d="M64.9,88.4l-1.6,29.7l-2.1-29.7c0.6,0,1.1,0.1,1.7,0.1C63.6,88.5,64.2,88.5,64.9,88.4z"/>
<path class="st0" d="M57,38.1c-1.2,0.3-2.4,0.7-3.6,1.1l-7.7-29L57,38.1z"/>
<path class="st0" d="M80.4,115.3L69.2,87.7c1.2-0.3,2.4-0.7,3.5-1.2L80.4,115.3z"/>
<path class="st0" d="M49.6,41.1c-1.1,0.6-2.1,1.4-3,2.2L30.3,18.2L49.6,41.1z"/>
<path class="st0" d="M95.8,107.4L76.6,84.5c1.1-0.7,2.1-1.4,3-2.2L95.8,107.4z"/>
<path class="st0" d="M43.5,46.3c-0.8,0.9-1.6,1.9-2.2,3L18.1,30.5L43.5,46.3z"/>
<path class="st0" d="M108,95.1L82.6,79.3c0.8-1,1.5-2,2.2-3L108,95.1z"/>
<path class="st0" d="M39.3,53.1c-0.5,1.1-0.9,2.3-1.2,3.5L10.3,45.9L39.3,53.1z"/>
<path class="st0" d="M115.8,79.6l-29.1-7.2c0.5-1.2,0.8-2.4,1.1-3.6L115.8,79.6z"/>
<path class="st0" d="M37.3,62.9c0,0.6,0,1.1,0.1,1.7L7.7,63l29.7-2.1C37.3,61.6,37.3,62.3,37.3,62.9z"/>
<path class="st0" d="M88.4,64.6c0-0.6,0.1-1.1,0.1-1.7c0-0.7,0-1.4-0.1-2l30,1.6L88.4,64.6z"/>
<path class="st0" d="M39.2,72.5l-28.7,7.6L38,69C38.3,70.2,38.7,71.3,39.2,72.5z"/>
<path class="st0" d="M115.6,45.4L87.7,56.7c-0.3-1.2-0.7-2.4-1.2-3.6L115.6,45.4z"/>
<path class="st0" d="M43.3,79.4L18.4,95.5l22.7-19.1C41.8,77.4,42.5,78.4,43.3,79.4L43.3,79.4z"/>
<path class="st0" d="M107.7,30l-23,19.4c-0.7-1.1-1.4-2.1-2.2-3L107.7,30z"/>
<path class="st0" d="M49.4,84.7l-18.7,23l15.7-25.2C47.4,83.3,48.4,84,49.4,84.7z"/>
<path class="st0" d="M95.4,17.8L79.4,43.4c-1-0.8-2-1.5-3-2.2L95.4,17.8z"/>
<path class="st0" d="M56.9,87.8l-10.7,27.7l7.1-28.8C54.5,87.1,55.7,87.5,56.9,87.8L56.9,87.8z"/>
<path class="st0" d="M79.9,10.1l-7.2,29.2c-1.2-0.5-2.4-0.9-3.6-1.2L79.9,10.1z"/>
<path class="st0" d="M63,40.8c-4.3,0-8.6,1.3-12.2,3.7c-3.6,2.4-6.4,5.8-8.1,9.9c-1.7,4-2.1,8.4-1.3,12.7c0.8,4.3,2.9,8.2,6,11.2
	c3.1,3.1,7,5.2,11.2,6c4.3,0.8,8.7,0.4,12.7-1.3c4-1.7,7.4-4.5,9.9-8.1c2.4-3.6,3.7-7.9,3.7-12.2c0-5.8-2.3-11.4-6.4-15.5
	C74.5,43.1,68.9,40.8,63,40.8L63,40.8z M57.8,44.5c-1.8,1.8-3.3,3.8-4.3,6.2h-5.1C50.8,47.7,54.1,45.6,57.8,44.5L57.8,44.5z
	 M46.3,53.7h6c-0.8,2.4-1.2,5-1.3,7.5h-6.9C44.3,58.6,45,56,46.3,53.7L46.3,53.7z M46.1,71.4c-1.1-2.2-1.8-4.7-2-7.2h7
	c0.1,2.4,0.5,4.8,1.2,7.2H46.1z M48,74.4h5.2c1,2.5,2.5,4.7,4.4,6.5C53.8,79.8,50.4,77.5,48,74.4L48,74.4z M61.2,80
	c-1.9-1.2-3.5-3.2-4.7-5.6h4.7V80z M61.2,71.4h-6c-0.8-2.3-1.2-4.7-1.3-7.2h7.3L61.2,71.4z M61.2,61.2h-7.3c0.1-2.6,0.6-5.1,1.5-7.5
	h5.8V61.2z M61.2,50.7h-4.5c1.1-2,2.6-3.8,4.5-5.2V50.7z M79.8,53.7c1.3,2.3,2,4.9,2.2,7.5h-7c-0.1-2.6-0.6-5.1-1.5-7.5H79.8z
	 M77.7,50.7h-5.4c-1.2-2.4-2.8-4.6-4.9-6.4C71.5,45.3,75.1,47.5,77.7,50.7L77.7,50.7z M64.2,45.5c1.9,1.4,3.6,3.1,4.8,5.2h-4.8V45.5
	z M64.2,53.7h6.3c1,2.4,1.5,4.9,1.7,7.5h-8V53.7z M64.2,64.2h8c-0.1,2.5-0.6,4.9-1.5,7.2h-6.5V64.2z M64.2,79.9v-5.5h5.1
	C68,76.6,66.2,78.5,64.2,79.9L64.2,79.9z M67.3,81.3c2.2-1.9,4-4.2,5.3-6.9h5.5C75.4,77.9,71.6,80.3,67.3,81.3L67.3,81.3z
	 M73.8,71.4c0.8-2.3,1.2-4.7,1.3-7.2h7c-0.2,2.5-0.9,5-2,7.2H73.8z"/>
</svg>
