<?xml version="1.0" encoding="UTF-8"?>
<svg id="Layer_1" data-name="Layer 1" xmlns="http://www.w3.org/2000/svg" viewBox="0 0 1000 245">
  <defs>
    <style>
      .cls-1 {
        fill: #fff;
      }

      .cls-2 {
        fill: #2dd4bf;
      }
    </style>
  </defs>
  <path class="cls-2" d="m944.63,12.46c24.02,0,43.56,19.63,43.56,43.76v132.73c0,24.13-19.54,43.76-43.56,43.76h-445.31l26.55-48.73c6.92-12.7,2.27-28.72-10.36-35.7l-37.9-21,53.67-114.82h413.35m0-11.94h-420.95l-57.48,122.99c-2.3,4.93-.4,10.87,4.36,13.51l39.17,21.71c6.91,3.82,9.45,12.59,5.66,19.54l-36.17,66.38h465.41c30.61,0,55.5-24.99,55.5-55.7V56.22c0-30.72-24.9-55.7-55.5-55.7h0Z"/>
  <g>
    <path class="cls-1" d="m.14,161.54v-79.01h31.38c4.81,0,9.12.96,12.92,2.88,3.8,1.92,6.77,4.63,8.92,8.13,2.14,3.5,3.22,7.69,3.22,12.59v1.47c0,4.89-1.11,9.1-3.33,12.64-2.22,3.54-5.21,6.25-8.97,8.13-3.76,1.88-8.01,2.82-12.75,2.82H12.33v30.36H.14Zm12.19-41.43h17.95c4.29,0,7.71-1.13,10.27-3.39,2.56-2.26,3.84-5.34,3.84-9.26v-1.13c0-3.99-1.28-7.11-3.84-9.37-2.56-2.26-5.98-3.39-10.27-3.39H12.33v26.52Z"/>
    <path class="cls-1" d="m68.55,161.54v-79.01h11.63v79.01h-11.63Z"/>
    <path class="cls-1" d="m118.77,162.55c-4.21,0-7.98-.94-11.29-2.82-3.31-1.88-5.91-4.55-7.79-8.01-1.88-3.46-2.82-7.6-2.82-12.42v-33.41h11.63v32.62c0,4.82,1.2,8.37,3.61,10.67,2.41,2.3,5.76,3.44,10.05,3.44,4.74,0,8.56-1.6,11.46-4.8,2.9-3.2,4.35-7.81,4.35-13.83v-28.1h11.63v55.65h-11.4v-8.35h-1.81c-1.05,2.26-2.93,4.38-5.64,6.38-2.71,1.99-6.7,2.99-11.97,2.99Z"/>
    <path class="cls-1" d="m164.04,134v-1.69c0-5.87,1.18-10.87,3.56-15.01,2.37-4.14,5.51-7.34,9.42-9.59,3.91-2.26,8.2-3.39,12.87-3.39,5.42,0,9.57,1.02,12.47,3.05,2.9,2.03,5.02,4.21,6.38,6.55h1.81v-8.01h11.29v67.05c0,3.39-1,6.09-2.99,8.13-1.99,2.03-4.72,3.05-8.18,3.05h-37.47v-10.16h33.86c2.18,0,3.27-1.13,3.27-3.39v-17.72h-1.81c-.83,1.35-1.99,2.75-3.5,4.18-1.51,1.43-3.48,2.6-5.93,3.5-2.45.9-5.51,1.35-9.2,1.35-4.67,0-8.97-1.11-12.92-3.33-3.95-2.22-7.09-5.42-9.43-9.59-2.33-4.18-3.5-9.16-3.5-14.96Zm29.01,17.72c5.04,0,9.2-1.6,12.47-4.8,3.27-3.2,4.91-7.62,4.91-13.26v-1.02c0-5.79-1.62-10.25-4.85-13.38-3.24-3.12-7.41-4.68-12.53-4.68s-9.09,1.56-12.36,4.68c-3.27,3.12-4.91,7.58-4.91,13.38v1.02c0,5.64,1.64,10.06,4.91,13.26s7.39,4.8,12.36,4.8Z"/>
  </g>
  <g>
    <path class="cls-1" d="m261.82,161.54v-67.95h-24.27v-11.06h60.73v11.06h-24.27v67.95h-12.19Z"/>
    <path class="cls-1" d="m309.67,161.54v-79.01h11.63v31.27h1.81c.75-1.43,1.82-2.82,3.22-4.18,1.39-1.35,3.23-2.46,5.53-3.33,2.29-.86,5.21-1.3,8.75-1.3,4.21,0,7.96.94,11.23,2.82,3.27,1.88,5.85,4.53,7.73,7.96,1.88,3.42,2.82,7.55,2.82,12.36v33.41h-11.63v-32.51c0-4.81-1.2-8.37-3.61-10.67-2.41-2.29-5.72-3.44-9.93-3.44-4.82,0-8.67,1.58-11.57,4.74-2.9,3.16-4.35,7.75-4.35,13.77v28.11h-11.63Z"/>
    <path class="cls-1" d="m404.6,163.12c-5.64,0-10.57-1.18-14.79-3.56-4.21-2.37-7.51-5.72-9.88-10.05-2.37-4.33-3.56-9.35-3.56-15.07v-1.35c0-5.79,1.17-10.85,3.5-15.18,2.33-4.33,5.59-7.67,9.76-10.05,4.18-2.37,9.01-3.56,14.5-3.56s10.03,1.19,14.05,3.56c4.02,2.37,7.17,5.66,9.43,9.88,2.26,4.21,3.39,9.14,3.39,14.79v4.4h-42.78c.15,4.89,1.79,8.79,4.91,11.68,3.12,2.9,7.02,4.35,11.68,4.35,4.36,0,7.66-.98,9.88-2.93,2.22-1.96,3.93-4.21,5.14-6.77l9.59,4.97c-1.05,2.11-2.58,4.33-4.57,6.66-1.99,2.33-4.61,4.29-7.84,5.87-3.24,1.58-7.38,2.37-12.42,2.37Zm-16.25-35.1h30.81c-.3-4.21-1.81-7.51-4.51-9.88-2.71-2.37-6.25-3.56-10.61-3.56s-7.92,1.18-10.67,3.56c-2.75,2.37-4.42,5.66-5.02,9.88Z"/>
  </g>
  <g>
    <path class="cls-1" d="m560.22,161.54v-10.84h10.61v-57.34h-10.61v-10.84h40.07c4.74,0,8.88.81,12.42,2.43,3.54,1.62,6.3,3.91,8.3,6.89,1.99,2.97,2.99,6.49,2.99,10.55v1.13c0,3.61-.68,6.59-2.03,8.92-1.35,2.33-2.99,4.14-4.91,5.42-1.92,1.28-3.74,2.18-5.47,2.71v1.81c1.73.45,3.59,1.34,5.59,2.65,1.99,1.32,3.69,3.14,5.08,5.48,1.39,2.33,2.09,5.38,2.09,9.14v1.13c0,4.37-1.02,8.09-3.05,11.17-2.03,3.09-4.84,5.46-8.41,7.11-3.57,1.66-7.69,2.48-12.36,2.48h-40.3Zm22.91-45.38h15.92c3.84,0,6.92-.96,9.26-2.88,2.33-1.92,3.5-4.53,3.5-7.84v-1.13c0-3.31-1.15-5.93-3.44-7.84-2.3-1.92-5.4-2.88-9.31-2.88h-15.92v22.57Zm0,34.31h15.92c4.06,0,7.26-.98,9.59-2.93,2.33-1.96,3.5-4.67,3.5-8.13v-1.02c0-3.46-1.15-6.17-3.44-8.13-2.3-1.96-5.51-2.93-9.65-2.93h-15.92v23.14Z"/>
    <path class="cls-1" d="m638.33,161.54v-55.65h11.4v6.55h1.81c.9-2.33,2.35-4.04,4.35-5.13,1.99-1.09,4.46-1.64,7.39-1.64h6.66v10.5h-7.11c-3.76,0-6.85,1.04-9.26,3.1-2.41,2.07-3.61,5.25-3.61,9.54v32.73h-11.63Z"/>
    <path class="cls-1" d="m705.49,163.12c-5.64,0-10.57-1.18-14.79-3.56-4.22-2.37-7.51-5.72-9.88-10.05-2.37-4.33-3.56-9.35-3.56-15.07v-1.35c0-5.79,1.17-10.85,3.5-15.18,2.33-4.33,5.59-7.67,9.76-10.05,4.18-2.37,9.01-3.56,14.5-3.56s10.03,1.19,14.05,3.56c4.02,2.37,7.17,5.66,9.43,9.88,2.26,4.21,3.39,9.14,3.39,14.79v4.4h-42.78c.15,4.89,1.79,8.79,4.91,11.68,3.12,2.9,7.02,4.35,11.68,4.35,4.36,0,7.66-.98,9.88-2.93,2.22-1.96,3.93-4.21,5.14-6.77l9.59,4.97c-1.05,2.11-2.58,4.33-4.57,6.66-1.99,2.33-4.61,4.29-7.85,5.87-3.24,1.58-7.37,2.37-12.42,2.37Zm-16.25-35.1h30.81c-.3-4.21-1.81-7.51-4.51-9.88-2.71-2.37-6.25-3.56-10.61-3.56s-7.92,1.18-10.67,3.56c-2.75,2.37-4.42,5.66-5.02,9.88Z"/>
    <path class="cls-1" d="m763.17,163.12c-3.99,0-7.55-.68-10.67-2.03-3.12-1.35-5.61-3.35-7.45-5.98-1.84-2.63-2.77-5.83-2.77-9.59s.92-7.02,2.77-9.54c1.84-2.52,4.36-4.42,7.56-5.7,3.2-1.28,6.83-1.92,10.89-1.92h16.93v-3.61c0-3.23-.98-5.83-2.93-7.79-1.96-1.96-4.97-2.93-9.03-2.93s-7.04.94-9.14,2.82c-2.11,1.88-3.5,4.33-4.18,7.34l-10.84-3.5c.9-3.01,2.35-5.74,4.35-8.18,1.99-2.44,4.65-4.42,7.96-5.92,3.31-1.5,7.3-2.26,11.96-2.26,7.22,0,12.9,1.84,17.04,5.53,4.14,3.69,6.21,8.92,6.21,15.69v22.91c0,2.26,1.05,3.39,3.16,3.39h4.74v9.71h-8.69c-2.63,0-4.78-.68-6.43-2.03-1.66-1.35-2.48-3.2-2.48-5.53v-.34h-1.69c-.6,1.13-1.51,2.45-2.71,3.95-1.2,1.51-2.97,2.81-5.3,3.9-2.33,1.09-5.42,1.64-9.26,1.64Zm1.69-9.59c4.67,0,8.43-1.33,11.29-4.01,2.86-2.67,4.29-6.34,4.29-11.01v-1.13h-16.25c-3.09,0-5.57.66-7.45,1.98-1.88,1.32-2.82,3.26-2.82,5.81s.98,4.59,2.93,6.1c1.96,1.51,4.63,2.26,8.01,2.26Z"/>
    <path class="cls-1" d="m835.53,163.12c-5.34,0-10.18-1.13-14.5-3.39-4.33-2.26-7.75-5.53-10.27-9.82-2.52-4.29-3.78-9.44-3.78-15.46v-1.47c0-6.02,1.26-11.16,3.78-15.41,2.52-4.25,5.94-7.52,10.27-9.82,4.33-2.3,9.16-3.44,14.5-3.44s9.89.98,13.66,2.93c3.76,1.96,6.79,4.55,9.09,7.79,2.3,3.24,3.78,6.81,4.46,10.72l-11.29,2.37c-.38-2.48-1.17-4.74-2.37-6.77-1.2-2.03-2.9-3.65-5.08-4.85-2.18-1.2-4.93-1.81-8.24-1.81s-6.15.73-8.75,2.2c-2.6,1.47-4.65,3.57-6.15,6.32-1.51,2.75-2.26,6.08-2.26,9.99v1.02c0,3.91.75,7.26,2.26,10.04,1.5,2.79,3.56,4.89,6.15,6.32,2.6,1.43,5.51,2.14,8.75,2.14,4.89,0,8.62-1.26,11.17-3.78,2.56-2.52,4.18-5.74,4.85-9.65l11.29,2.6c-.9,3.84-2.5,7.38-4.8,10.61-2.3,3.24-5.32,5.81-9.09,7.73-3.76,1.92-8.32,2.88-13.66,2.88Z"/>
    <path class="cls-1" d="m876.5,161.54v-79.01h11.63v31.27h1.81c.75-1.43,1.82-2.82,3.22-4.18,1.39-1.35,3.23-2.46,5.53-3.33,2.29-.86,5.21-1.3,8.75-1.3,4.21,0,7.96.94,11.23,2.82,3.27,1.88,5.85,4.53,7.73,7.96,1.88,3.42,2.82,7.55,2.82,12.36v33.41h-11.63v-32.51c0-4.81-1.21-8.37-3.61-10.67-2.41-2.29-5.72-3.44-9.93-3.44-4.82,0-8.67,1.58-11.57,4.74-2.9,3.16-4.35,7.75-4.35,13.77v28.11h-11.63Z"/>
  </g>
</svg>