<svg width="300" height="200" viewBox="0 0 918 386" fill="none" xmlns="http://www.w3.org/2000/svg">
<path d="M450.86 120.71H434.72V58.61H450.86V120.71Z" fill="#171717"/>
<path d="M473 58.61H489.14L518.71 96.61H518.87V58.61H535V120.71H518.89L489.32 82.71H489.16V120.71H473V58.61Z" fill="#171717"/>
<path d="M581.89 120.71H565.75V72.28H552.41V58.61H595.23V72.28H581.89V120.71Z" fill="#171717"/>
<path d="M628.83 72.2801V82.6601H647V96.33H628.83V107H648V120.67H612.69V58.5701H648V72.2401L628.83 72.2801Z" fill="#171717"/>
<path d="M721.24 120.71H701.14L685.91 96.83H685.74V120.71H669.6V58.61H693.73C706 58.61 715.31 64.46 715.31 77.72C715.31 86.28 710.53 93.72 701.72 95.26L721.24 120.71ZM685.74 86.45H687.31C692.58 86.45 698.51 85.45 698.51 78.71C698.51 71.97 692.58 70.96 687.31 70.96H685.74V86.45Z" fill="#171717"/>
<path d="M737.21 58.61H753.36L782.92 96.61H783.09V58.61H799.23V120.71H783.09L753.52 82.71H753.36V120.71H737.21V58.61Z" fill="#171717"/>
<path d="M837.52 72.2801V82.6601H855.73V96.33H837.52V107H856.71V120.67H821.38V58.5701H856.71V72.2401L837.52 72.2801Z" fill="#171717"/>
<path d="M903 120.71H886.85V72.28H873.51V58.61H916.34V72.28H903V120.71Z" fill="#171717"/>
<path d="M452 181.37V191.74H469.71V205.42H452V229.79H435.81V167.69H471.47V181.37H452Z" fill="#171717"/>
<path d="M545.59 229.79H525.5L510.26 205.91H510.09V229.79H494V167.69H518.13C530.41 167.69 539.71 173.54 539.71 186.8C539.71 195.37 534.93 202.8 526.12 204.34L545.59 229.79ZM510.09 195.53H511.66C516.93 195.53 522.86 194.53 522.86 187.79C522.86 181.05 516.93 180.05 511.66 180.05H510.09V195.53Z" fill="#171717"/>
<path d="M579.6 181.37V191.74H597.8V205.42H579.6V216.12H598.79V229.79H563.46V167.69H598.79V181.37H579.6Z" fill="#171717"/>
<path d="M638.4 181.37V191.74H656.6V205.42H638.4V216.12H657.59V229.79H622.26V167.69H657.59V181.37H638.4Z" fill="#171717"/>
<path d="M681.06 167.69H704C721.29 167.69 735.54 181.28 735.54 198.74C735.54 216.2 721.21 229.74 704 229.74H681.1L681.06 167.69ZM697.2 216.12H700.83C710.46 216.12 718.7 210.85 718.7 198.74C718.7 187.63 711.37 181.37 700.99 181.37H697.2V216.12Z" fill="#171717"/>
<path d="M822.06 197.59C822.06 217.69 807.65 231.85 787.72 231.85C767.79 231.85 753.37 217.69 753.37 197.59C753.37 178.81 769.84 165.64 787.72 165.64C805.6 165.64 822.06 178.81 822.06 197.59ZM770.17 197.67C770.17 208.38 778.08 216.2 787.72 216.2C797.36 216.2 805.26 208.38 805.26 197.67C805.26 189.11 797.35 181.28 787.72 181.28C778.09 181.28 770.17 189.11 770.17 197.67V197.67Z" fill="#171717"/>
<path d="M849.89 167.69H865.79L878.39 200.88L891.73 167.69H907.79L917.18 229.79H901L896.47 194.05H896.3L881.4 229.79H875L860.76 194.05H860.59L855.4 229.79H839.35L849.89 167.69Z" fill="#171717"/>
<path d="M445.36 284.78V295.72H459.36V304.15H445.36V326H435.67V276.35H460.31V284.78H445.36Z" fill="#171717"/>
<path d="M497.6 327.34C482.45 327.34 473.03 315.74 473.03 301.12C473.03 286.5 482.78 275 497.6 275C512.42 275 522.17 286.33 522.17 301.09C522.17 315.85 512.75 327.34 497.6 327.34ZM497.6 284.58C488.45 284.58 483.04 292.69 483.04 300.72C483.04 308.36 486.87 317.79 497.6 317.79C508.33 317.79 512.16 308.36 512.16 300.72C512.16 292.69 506.76 284.58 497.6 284.58Z" fill="#171717"/>
<path d="M535.89 276.35H545.57V304.15C545.57 310.28 546.1 318.91 554.33 318.91C562.56 318.91 563.09 310.28 563.09 304.15V276.35H572.78V306.06C572.78 318.18 567.64 327.34 554.33 327.34C541.02 327.34 535.89 318.18 535.89 306.06V276.35Z" fill="#171717"/>
<path d="M588.86 275H595.86L622 309.75H622.13V276.35H631.81V327H624.81L598.66 292.28H598.53V326H588.85L588.86 275Z" fill="#171717"/>
<path d="M648.08 276.35H661.92C676.28 276.35 685.92 287.09 685.92 301.25C685.92 315.25 676.04 326.02 661.92 326.02H648.08V276.35ZM657.77 317.59H659.35C671.27 317.59 675.88 311 675.88 301.18C675.88 290.38 670.35 284.78 659.35 284.78H657.77V317.59Z" fill="#171717"/>
<path d="M710 315.55L705.93 326H695.72L715.09 275H722.6L741.44 326H731.09L727.27 315.53L710 315.55ZM718.37 289.55H718.24L712.77 307.55H724.56L718.37 289.55Z" fill="#171717"/>
<path d="M764.5 326H754.82V284.78H744.82V276.35H774.52V284.78H764.52L764.5 326Z" fill="#171717"/>
<path d="M797 326H787.3V276.35H797V326Z" fill="#171717"/>
<path d="M835.46 327.34C820.31 327.34 810.89 315.74 810.89 301.12C810.89 286.5 820.64 275 835.46 275C850.28 275 860 286.36 860 301.12C860 315.88 850.61 327.34 835.46 327.34ZM835.46 284.58C826.3 284.58 820.9 292.69 820.9 300.72C820.9 308.36 824.72 317.79 835.46 317.79C846.2 317.79 850 308.36 850 300.72C850 292.69 844.61 284.58 835.46 284.58Z" fill="#171717"/>
<path d="M874 275H881L907.15 309.72H907.28V276.32H917V327H910L883.85 292.28H883.72V326H874V275Z" fill="#171717"/>
<path d="M105.72 21.88C11.2201 70 -26.3699 185.68 21.7901 280.19C69.9501 374.7 185.61 412.28 280.1 364.13C374.59 315.98 412.18 200.31 364 105.81C315.82 11.31 200.24 -26.28 105.72 21.88ZM359.4 156.65C359.242 156.656 359.085 156.673 358.93 156.7C357.615 156.864 356.346 157.29 355.198 157.954C354.051 158.618 353.049 159.506 352.252 160.564C351.454 161.623 350.878 162.831 350.557 164.117C350.235 165.403 350.176 166.741 350.382 168.05C350.587 169.359 351.054 170.614 351.755 171.74C352.455 172.865 353.374 173.838 354.458 174.601C355.542 175.364 356.768 175.902 358.064 176.181C359.359 176.461 360.698 176.478 362 176.23L362.45 176.14C363.575 187.355 363.575 198.655 362.45 209.87L362.01 209.78C359.451 209.435 356.858 210.106 354.786 211.647C352.714 213.189 351.328 215.48 350.923 218.031C350.518 220.582 351.127 223.19 352.619 225.297C354.112 227.405 356.37 228.845 358.91 229.31C359.053 229.32 359.197 229.32 359.34 229.31C356.934 240.321 353.444 251.067 348.92 261.39C348.801 261.309 348.678 261.236 348.55 261.17C346.212 259.977 343.496 259.761 340.999 260.57C338.502 261.379 336.429 263.147 335.235 265.485C334.042 267.823 333.826 270.539 334.635 273.036C335.444 275.533 337.212 277.607 339.55 278.8L339.95 278.98C334.263 288.709 327.631 297.853 320.15 306.28C320.05 306.16 319.93 306.04 319.82 305.93C317.964 304.074 315.446 303.031 312.82 303.031C310.195 303.031 307.677 304.074 305.82 305.93C303.964 307.787 302.921 310.305 302.921 312.93C302.921 315.556 303.964 318.074 305.82 319.93L306.15 320.25C297.731 327.736 288.589 334.369 278.86 340.05C278.808 339.916 278.748 339.786 278.68 339.66C277.487 337.325 275.414 335.559 272.919 334.752C270.424 333.945 267.71 334.162 265.375 335.355C263.04 336.548 261.274 338.621 260.467 341.116C259.66 343.611 259.877 346.325 261.07 348.66C261.132 348.791 261.202 348.918 261.28 349.04C250.967 353.577 240.227 357.074 229.22 359.48C229.22 359.32 229.22 359.18 229.16 359.03C228.752 356.442 227.332 354.121 225.212 352.58C223.093 351.038 220.449 350.402 217.86 350.81C215.272 351.218 212.951 352.638 211.41 354.758C209.868 356.877 209.232 359.522 209.64 362.11C209.656 362.269 209.686 362.426 209.73 362.58C198.508 363.695 187.202 363.695 175.98 362.58C176.019 362.435 176.049 362.288 176.07 362.14C176.307 360.845 176.282 359.515 175.997 358.23C175.713 356.944 175.174 355.729 174.413 354.654C173.652 353.58 172.684 352.668 171.566 351.973C170.447 351.279 169.202 350.814 167.901 350.608C166.601 350.401 165.272 350.456 163.994 350.77C162.715 351.084 161.512 351.651 160.456 352.437C159.399 353.222 158.51 354.211 157.841 355.345C157.172 356.479 156.737 357.735 156.56 359.04C156.55 359.18 156.55 359.32 156.56 359.46C145.552 357.05 134.811 353.546 124.5 349C124.57 348.89 124.64 348.76 124.7 348.64C125.291 347.484 125.649 346.224 125.752 344.93C125.856 343.636 125.704 342.334 125.305 341.099C124.905 339.864 124.267 338.72 123.425 337.732C122.584 336.744 121.556 335.931 120.4 335.34C119.244 334.749 117.984 334.392 116.69 334.288C115.396 334.184 114.095 334.336 112.859 334.736C111.624 335.135 110.48 335.773 109.492 336.615C108.504 337.456 107.691 338.484 107.1 339.64C107.021 339.769 106.958 339.907 106.91 340.05C97.1741 334.371 88.0289 327.734 79.6101 320.24C79.7301 320.14 79.8401 320.03 79.9501 319.92C80.8693 319.001 81.5985 317.909 82.096 316.708C82.5935 315.507 82.8495 314.22 82.8495 312.92C82.8495 311.62 82.5935 310.333 82.096 309.132C81.5985 307.931 80.8693 306.839 79.9501 305.92C79.0308 305.001 77.9395 304.272 76.7384 303.774C75.5374 303.277 74.2501 303.021 72.9501 303.021C71.65 303.021 70.3627 303.277 69.1617 303.774C67.9606 304.272 66.8693 305.001 65.9501 305.92C65.8416 306.026 65.7413 306.139 65.6501 306.26C58.1574 297.856 51.5244 288.724 45.8501 279L46.2401 278.82C48.5753 277.627 50.3408 275.554 51.1481 273.059C51.9555 270.564 51.7385 267.85 50.5451 265.515C49.3516 263.18 47.2793 261.414 44.7841 260.607C42.289 259.8 39.5753 260.017 37.2401 261.21C37.1123 261.272 36.9887 261.342 36.8701 261.42C32.3282 251.101 28.8275 240.354 26.4201 229.34C26.5732 229.35 26.7269 229.35 26.8801 229.34C29.4712 228.929 31.793 227.505 33.3345 225.382C34.8761 223.26 35.5111 220.611 35.1001 218.02C34.689 215.429 33.2654 213.107 31.1425 211.566C29.0196 210.024 26.3712 209.389 23.7801 209.8L23.3301 209.89C22.205 198.672 22.205 187.369 23.3301 176.15C23.4737 176.195 23.6209 176.229 23.7701 176.25C26.3218 176.576 28.9 175.894 30.9575 174.35C33.0151 172.806 34.3901 170.521 34.7909 167.98C35.1916 165.439 34.5865 162.842 33.104 160.74C31.6214 158.638 29.3781 157.196 26.8501 156.72C26.7135 156.711 26.5766 156.711 26.4401 156.72C28.8352 145.71 32.3224 134.967 36.8501 124.65L37.2301 124.86C39.5666 126.053 42.2816 126.27 44.7777 125.462C46.0136 125.061 47.1586 124.422 48.1474 123.579C49.1361 122.736 49.9491 121.707 50.5401 120.55C51.131 119.393 51.4883 118.131 51.5915 116.836C51.6947 115.541 51.5419 114.238 51.1416 113.002C50.7414 111.766 50.1017 110.621 49.2589 109.633C48.4162 108.644 47.387 107.831 46.2301 107.24L45.8201 107.06C51.5005 97.3167 58.1437 88.1676 65.6501 79.75C65.7489 79.8736 65.8558 79.9905 65.9701 80.1C66.8893 81.0193 67.9806 81.7485 69.1817 82.246C70.3827 82.7435 71.67 82.9995 72.9701 82.9995C74.2701 82.9995 75.5574 82.7435 76.7584 82.246C77.9595 81.7485 79.0508 81.0193 79.9701 80.1C80.8893 79.1808 81.6185 78.0894 82.116 76.8884C82.6135 75.6873 82.8695 74.4 82.8695 73.1C82.8695 71.8 82.6135 70.5127 82.116 69.3116C81.6185 68.1106 80.8893 67.0193 79.9701 66.1C79.8606 65.9858 79.7436 65.8788 79.6201 65.78C88.0437 58.2871 97.1921 51.6511 106.93 45.97C106.985 46.1104 107.049 46.2473 107.12 46.38C107.711 47.5363 108.524 48.5649 109.512 49.407C110.501 50.2491 111.645 50.8883 112.881 51.2881C114.116 51.6878 115.419 51.8403 116.713 51.7369C118.007 51.6334 119.269 51.276 120.425 50.685C121.581 50.0941 122.61 49.2812 123.452 48.2927C124.294 47.3043 124.933 46.1596 125.333 44.9241C125.733 43.6886 125.885 42.3865 125.782 41.0921C125.678 39.7977 125.321 38.5363 124.73 37.38C124.66 37.25 124.59 37.12 124.51 36.99C134.829 32.4513 145.576 28.954 156.59 26.55C156.596 26.7076 156.613 26.8646 156.64 27.02C157.105 29.5604 158.545 31.8182 160.653 33.3108C162.76 34.8034 165.368 35.4123 167.919 35.0074C170.47 34.6026 172.761 33.216 174.303 31.1441C175.844 29.0723 176.515 26.4795 176.17 23.92C176.15 23.7617 176.12 23.6047 176.08 23.45C187.295 22.32 198.595 22.32 209.81 23.45C209.81 23.6 209.74 23.74 209.72 23.88C209.483 25.1769 209.507 26.5081 209.792 27.7954C210.076 29.0827 210.615 30.3001 211.377 31.3761C212.139 32.452 213.109 33.3647 214.229 34.0606C215.348 34.7564 216.596 35.2213 217.898 35.428C219.2 35.6347 220.53 35.579 221.811 35.2641C223.091 34.9492 224.295 34.3815 225.353 33.5944C226.411 32.8073 227.3 31.8167 227.969 30.6808C228.639 29.5449 229.074 28.2866 229.25 26.98L229.31 26.55C240.307 28.9619 251.037 32.4625 261.34 37C261.257 37.1175 261.184 37.2412 261.12 37.37C260.529 38.527 260.172 39.789 260.069 41.084C259.965 42.379 260.118 43.6817 260.518 44.9176C260.919 46.1536 261.558 47.2986 262.401 48.2873C263.244 49.276 264.273 50.0891 265.43 50.68C267.767 51.8735 270.482 52.0899 272.978 51.2816C275.474 50.4733 277.547 48.7066 278.74 46.37C278.81 46.24 278.87 46.1 278.93 45.96C288.666 51.6394 297.811 58.2756 306.23 65.77C306.11 65.87 306 65.98 305.89 66.09C304.034 67.9465 302.991 70.4645 302.991 73.09C302.991 75.7155 304.034 78.2335 305.89 80.09C307.747 81.9465 310.265 82.9895 312.89 82.9895C315.516 82.9895 318.034 81.9465 319.89 80.09C320.004 79.9805 320.111 79.8636 320.21 79.74C327.696 88.1462 334.326 97.2781 340 107C339.862 107.053 339.728 107.117 339.6 107.19C337.265 108.383 335.499 110.456 334.692 112.951C333.885 115.446 334.102 118.16 335.295 120.495C336.489 122.83 338.561 124.596 341.056 125.403C343.551 126.21 346.265 125.993 348.6 124.8C348.73 124.73 348.87 124.66 348.99 124.58C353.518 134.897 357.005 145.641 359.4 156.65Z" fill="#171717"/>
<path d="M198.64 115.48C196.64 115.32 194.54 115.23 192.45 115.23C190.67 115.23 188.91 115.3 187.16 115.41L192.09 23.65L198.64 115.48Z" fill="#171717"/>
<path d="M198.61 271.45L193.73 362.34L187.26 271.51C188.97 271.64 190.7 271.69 192.45 271.69C194.52 271.69 196.58 271.61 198.61 271.45Z" fill="#171717"/>
<path d="M174.35 117.36C170.619 118.227 166.961 119.384 163.41 120.82L139.81 32.2L174.35 117.36Z" fill="#171717"/>
<path d="M246 353.8L211.71 269.31C215.393 268.372 219.003 267.166 222.51 265.7L246 353.8Z" fill="#171717"/>
<path d="M151.76 126.65C148.489 128.624 145.374 130.844 142.44 133.29L92.71 56.48L151.76 126.65Z" fill="#171717"/>
<path d="M293.12 329.51L234.27 259.59C237.492 257.559 240.557 255.289 243.44 252.8L293.12 329.51Z" fill="#171717"/>
<path d="M133.09 142.49C130.609 145.383 128.34 148.451 126.3 151.67L55.4199 94.13L133.09 142.49Z" fill="#171717"/>
<path d="M330.4 291.87L252.65 243.43C255.09 240.502 257.31 237.397 259.29 234.14L330.4 291.87Z" fill="#171717"/>
<path d="M120.19 163.41C118.728 166.912 117.532 170.519 116.61 174.2L31.6101 141.46L120.19 163.41Z" fill="#171717"/>
<path d="M354.21 244.55L265.14 222.46C266.565 218.914 267.715 215.263 268.58 211.54L354.21 244.55Z" fill="#171717"/>
<path d="M114.21 193.47C114.21 195.23 114.28 196.96 114.39 198.69L23.5701 193.82L114.46 187.33C114.29 189.35 114.21 191.41 114.21 193.47Z" fill="#171717"/>
<path d="M270.51 198.71C270.62 196.98 270.69 195.23 270.69 193.47C270.69 191.38 270.6 189.31 270.44 187.25L362.25 192.17L270.51 198.71Z" fill="#171717"/>
<path d="M119.86 222.71L32.1201 246.11L116.4 211.9C117.289 215.583 118.445 219.196 119.86 222.71Z" fill="#171717"/>
<path d="M353.7 139.89L268.36 174.51C267.449 170.789 266.249 167.144 264.77 163.61L353.7 139.89Z" fill="#171717"/>
<path d="M132.59 243.84L56.3999 293.21L125.94 234.68C127.925 237.895 130.148 240.957 132.59 243.84V243.84Z" fill="#171717"/>
<path d="M329.42 92.8L258.89 152.15C256.869 148.888 254.606 145.783 252.12 142.86L329.42 92.8Z" fill="#171717"/>
<path d="M151.27 260L94.05 330.48L142.05 253.35C144.965 255.778 148.046 258 151.27 260Z" fill="#171717"/>
<path d="M291.79 55.51L243 133.78C240.073 131.299 236.968 129.037 233.71 127.01L291.79 55.51Z" fill="#171717"/>
<path d="M174 269.5L141.34 354.31L163.2 266.06C166.71 267.473 170.32 268.623 174 269.5V269.5Z" fill="#171717"/>
<path d="M244.46 31.6899L222.29 121.13C218.745 119.667 215.095 118.473 211.37 117.56L244.46 31.6899Z" fill="#171717"/>
<path d="M192.91 125.78C179.615 125.78 166.619 129.722 155.565 137.109C144.51 144.495 135.895 154.993 130.807 167.276C125.719 179.559 124.388 193.075 126.982 206.114C129.575 219.153 135.977 231.131 145.378 240.532C154.779 249.933 166.757 256.335 179.796 258.928C192.835 261.522 206.351 260.191 218.634 255.103C230.917 250.016 241.415 241.4 248.801 230.345C256.188 219.291 260.13 206.295 260.13 193C260.111 175.178 253.023 158.091 240.421 145.489C227.819 132.887 210.732 125.799 192.91 125.78V125.78ZM176.82 137.21C171.253 142.595 166.76 148.988 163.58 156.05H148C155.482 147.002 165.53 140.433 176.82 137.21V137.21ZM141.72 165.21H160.05C157.74 172.675 156.396 180.404 156.05 188.21H134.85C135.502 180.159 137.842 172.336 141.72 165.25V165.21ZM141 219.4C137.487 212.555 135.385 205.073 134.82 197.4H156.1C156.434 204.843 157.615 212.224 159.62 219.4H141ZM146.86 228.59H162.86C165.881 236.112 170.434 242.923 176.23 248.59C164.594 245.149 154.325 238.156 146.86 228.59V228.59ZM187.35 245.76C181.53 241.97 176.64 235.96 172.93 228.59H187.35V245.76ZM187.35 219.4H169.13C166.817 212.279 165.472 204.879 165.13 197.4H187.4L187.35 219.4ZM187.35 188.22H165.08C165.421 180.375 166.924 172.624 169.54 165.22H187.35V188.22ZM187.35 156.05H173.69C177.043 149.863 181.705 144.481 187.35 140.28V156.05ZM244.11 165.25C247.99 172.349 250.327 180.186 250.97 188.25H229.63C229.198 180.412 227.684 172.672 225.13 165.25H244.11ZM237.86 156.05H221.24C217.578 148.644 212.522 142.013 206.35 136.52C218.702 139.419 229.768 146.278 237.86 156.05V156.05ZM196.31 140.21C202.246 144.421 207.248 149.814 211 156.05H196.31V140.21ZM196.31 165.21H215.53C218.451 172.555 220.18 180.32 220.65 188.21H196.31V165.21ZM196.31 197.37H220.72C220.338 204.89 218.814 212.308 216.2 219.37H196.31V197.37ZM196.31 245.32V228.59H211.85C208.039 235.308 202.719 241.049 196.31 245.36V245.32ZM205.91 249.56C212.739 243.809 218.239 236.644 222.03 228.56H239C230.728 239.181 219.037 246.615 205.91 249.6V249.56ZM225.71 219.36C228.008 212.235 229.353 204.838 229.71 197.36H251C250.43 205.032 248.329 212.513 244.82 219.36H225.71Z" fill="#171717"/>
</svg>
