<svg width="220" height="30" viewBox="0 0 220 30" fill="none" xmlns="http://www.w3.org/2000/svg">
<path d="M0.856 0.599998V23H5.08V14.808H10.072C14.2 14.808 17.24 11.992 17.24 7.704C17.24 3.416 14.296 0.599998 10.072 0.599998H0.856ZM5.08 4.44H9.656C11.672 4.44 13.016 5.72 13.016 7.704C13.016 9.688 11.672 10.968 9.656 10.968H5.08V4.44ZM23.449 0.599998H19.417V23H23.449V0.599998ZM42.466 23V7.128H38.434V15.32C38.434 18.264 36.994 19.992 34.53 19.992C32.354 19.992 31.138 18.808 31.138 16.408V7.128H27.106V16.6C27.106 20.536 29.57 23.256 33.282 23.256C36.194 23.256 37.538 21.976 38.178 20.632H38.498V23H42.466ZM57.818 7.128V9.272H57.498C56.538 7.896 55.002 6.68 52.25 6.68C48.474 6.68 45.082 9.88 45.082 14.808C45.082 19.736 48.474 22.936 52.25 22.936C55.002 22.936 56.538 21.688 57.434 20.44H57.754V21.976C57.754 25.048 55.962 26.456 53.338 26.456C50.714 26.456 49.37 25.048 48.826 23.224L45.21 24.792C46.042 27.192 48.474 29.848 53.402 29.848C58.458 29.848 61.786 27.192 61.786 22.072V7.128H57.818ZM53.466 19.48C50.97 19.48 49.114 17.688 49.114 14.808C49.114 11.928 50.97 10.136 53.466 10.136C55.962 10.136 57.818 11.928 57.818 14.808C57.818 17.688 55.962 19.48 53.466 19.48ZM64.1065 0.599998V2.936H71.5945V23H74.1865V2.936H81.6425V0.599998H64.1065ZM84.5235 0.599998V23H86.9875V15.096C86.9875 11.192 89.1315 9.176 92.1395 9.176C94.8275 9.176 96.5235 10.552 96.5235 13.688V23H98.9555V13.528C98.9555 9.336 96.2035 7.064 92.7795 7.064C89.5475 7.064 88.0755 8.504 87.3075 9.88H86.9875V0.599998H84.5235ZM102.406 15.064C102.406 19.864 105.606 23.448 110.47 23.448C114.726 23.448 116.518 21.048 117.51 19.192L115.398 18.104C114.566 19.832 113.19 21.272 110.47 21.272C107.334 21.272 105.158 19.16 104.934 15.96H117.766V14.648C117.766 9.88 114.662 6.936 110.246 6.936C105.702 6.936 102.406 10.36 102.406 15.064ZM104.966 13.912C105.318 10.968 107.302 9.112 110.246 9.112C113.126 9.112 115.078 10.808 115.238 13.912H104.966ZM120.794 0.599998V23H131.034C134.874 23 137.626 20.696 137.626 16.92C137.626 13.592 135.45 12.312 133.85 11.864V11.544C135.45 11.064 137.498 9.816 137.498 6.552C137.498 2.904 134.81 0.599998 130.906 0.599998H120.794ZM125.018 4.44H130.458C132.25 4.44 133.466 5.464 133.466 7.128C133.466 8.792 132.25 9.816 130.458 9.816H125.018V4.44ZM125.018 13.656H130.522C132.378 13.656 133.594 14.68 133.594 16.408C133.594 18.136 132.378 19.16 130.522 19.16H125.018V13.656ZM144.354 7.128H140.386V23H144.418V13.784C144.418 11.544 145.89 10.456 147.938 10.456H150.306V7.064H148.642C146.626 7.064 145.282 7.672 144.674 9.368H144.354V7.128ZM150.926 15.064C150.926 20.12 154.222 23.448 158.958 23.448C163.31 23.448 165.198 20.984 166.094 19.288L162.798 17.56C162.254 18.776 161.326 19.992 159.086 19.992C156.846 19.992 155.15 18.424 155.054 16.248H166.606V14.872C166.606 10.008 163.566 6.68 158.894 6.68C154.222 6.68 150.926 10.008 150.926 15.064ZM155.086 13.24C155.342 11.48 156.686 10.136 158.862 10.136C160.942 10.136 162.318 11.416 162.51 13.24H155.086ZM168.913 11.16L172.625 12.408C172.913 10.968 173.873 9.88 175.889 9.88C177.937 9.88 178.833 11.032 178.833 12.504V13.4H174.481C170.897 13.4 168.337 15.096 168.337 18.36C168.337 21.624 170.897 23.448 174.161 23.448C177.105 23.448 178.161 21.848 178.449 21.144H178.897V23H182.737V12.792C182.737 8.824 180.113 6.68 175.953 6.68C171.825 6.68 169.681 8.76 168.913 11.16ZM172.369 18.264C172.369 17.176 173.265 16.408 174.769 16.408H178.833V16.664C178.833 18.776 177.233 20.184 174.993 20.184C173.265 20.184 172.369 19.384 172.369 18.264ZM185.176 15.064C185.176 19.992 188.824 23.448 193.432 23.448C197.88 23.448 200.472 20.856 201.368 17.368L197.464 16.44C197.112 18.488 195.928 19.928 193.496 19.928C191.064 19.928 189.208 18.136 189.208 15.064C189.208 11.992 191.064 10.2 193.496 10.2C195.928 10.2 197.112 11.736 197.336 13.656L201.24 12.824C200.536 9.272 197.848 6.68 193.432 6.68C188.824 6.68 185.176 10.136 185.176 15.064ZM203.855 0.599998V23H207.887V14.808C207.887 11.864 209.327 10.136 211.791 10.136C213.967 10.136 215.183 11.32 215.183 13.72V23H219.215V13.528C219.215 9.592 216.751 6.872 213.039 6.872C210.127 6.872 208.815 8.152 208.207 9.368H207.887V0.599998H203.855Z" fill="#033A2D"/>
</svg>
